<?xml version="1.0" standalone="no"?>
<!DOCTYPE svg PUBLIC "-//W3C//DTD SVG 20010904//EN"
 "http://www.w3.org/TR/2001/REC-SVG-20010904/DTD/svg10.dtd">
<svg version="1.0" xmlns="http://www.w3.org/2000/svg"
 width="360.000000pt" height="360.000000pt" viewBox="0 0 360.000000 360.000000"
 preserveAspectRatio="xMidYMid meet">

<g transform="translate(0.000000,360.000000) scale(0.100000,-0.100000)"
fill="#000000" stroke="none">
<path d="M125 3451 c-35 -10 -52 -25 -72 -61 -17 -29 -18 -40 -9 -67 6 -18 20
-41 31 -52 11 -11 108 -54 215 -96 260 -101 284 -111 292 -127 3 -7 14 -53 22
-103 9 -49 30 -164 47 -255 16 -91 34 -187 39 -215 5 -27 16 -88 25 -135 8
-47 22 -123 30 -170 9 -47 20 -107 25 -135 6 -27 37 -198 70 -380 33 -181 65
-351 71 -377 15 -64 54 -98 115 -98 32 0 44 -4 44 -15 0 -13 -86 -264 -110
-323 -16 -37 -12 -77 11 -106 18 -23 27 -26 85 -26 35 0 64 -3 64 -7 0 -5 -16
-39 -35 -78 -30 -59 -36 -81 -37 -140 -1 -85 12 -137 52 -197 59 -89 169 -147
277 -148 265 -1 425 299 277 519 -13 19 -21 38 -18 43 8 13 734 10 734 -3 0
-6 -9 -23 -19 -38 -39 -54 -56 -113 -56 -192 1 -179 133 -317 315 -327 102 -5
171 21 246 93 114 112 137 269 59 400 -19 31 -32 61 -29 66 3 5 36 9 73 9 59
0 70 3 91 25 46 49 20 126 -47 144 -25 7 -343 11 -935 11 -494 0 -898 2 -898
4 0 2 22 66 50 142 27 76 50 139 50 141 0 2 391 3 870 3 652 0 876 3 895 12
42 19 39 11 185 468 39 124 112 351 162 505 49 154 103 323 120 375 16 52 38
120 49 151 10 31 19 64 19 74 0 31 -39 83 -72 94 -17 6 -140 15 -272 21 -133
5 -342 14 -466 20 -346 16 -1123 49 -1340 56 l-196 7 -32 -32 c-35 -35 -42
-78 -20 -125 26 -58 33 -59 818 -91 638 -26 1313 -57 1318 -60 1 -1 -7 -28
-17 -61 -65 -202 -170 -529 -208 -649 -25 -77 -75 -232 -111 -345 l-67 -205
-897 -3 -897 -2 -10 52 c-6 29 -38 202 -71 383 -33 182 -67 368 -76 415 -42
230 -53 292 -69 375 -9 50 -20 110 -25 135 -5 25 -19 99 -30 165 -51 285 -53
291 -123 327 -50 25 -493 198 -532 207 -16 4 -39 5 -50 2z m1335 -2850 c88
-63 93 -192 10 -251 -42 -30 -116 -38 -158 -16 -41 21 -79 72 -87 117 -7 40
18 113 48 138 51 41 138 47 187 12z m1252 1 c16 -9 38 -36 49 -60 52 -107 -17
-220 -135 -222 -79 -1 -156 75 -156 154 0 58 58 134 115 149 31 9 95 -2 127
-21z"/>
</g>
</svg>
